<svg width="45" height="45" viewBox="0 0 45 45" fill="none" xmlns="http://www.w3.org/2000/svg">
<circle cx="22.5" cy="22.5" r="22.5" fill="#012A72"/>
<path fill-rule="evenodd" clip-rule="evenodd" d="M18.4027 27.3828C18.4027 28.8636 17.1911 30.0637 15.6969 30.0637C14.2018 30.0637 12.9902 28.8636 12.9902 27.3828C12.9902 25.902 14.2018 24.7019 15.6969 24.7019C17.1911 24.7019 18.4027 25.902 18.4027 27.3828Z" stroke="white" stroke-width="1.51422" stroke-linecap="round" stroke-linejoin="round"/>
<path fill-rule="evenodd" clip-rule="evenodd" d="M20.5675 36.5553H10.8256V35.0909C10.8256 32.4684 12.951 30.343 15.5735 30.343H15.8196C18.4421 30.343 20.5675 32.4684 20.5675 35.0909V36.5553Z" stroke="white" stroke-width="1.51422" stroke-linecap="round" stroke-linejoin="round"/>
<path fill-rule="evenodd" clip-rule="evenodd" d="M31.3514 27.3828C31.3514 28.8636 30.1398 30.0637 28.6456 30.0637C27.1505 30.0637 25.9388 28.8636 25.9388 27.3828C25.9388 25.902 27.1505 24.7019 28.6456 24.7019C30.1398 24.7019 31.3514 25.902 31.3514 27.3828Z" stroke="white" stroke-width="1.51422" stroke-linecap="round" stroke-linejoin="round"/>
<path fill-rule="evenodd" clip-rule="evenodd" d="M33.5161 36.5553H23.7743V35.0909C23.7743 32.4684 25.8997 30.343 28.5221 30.343H28.7683C31.3908 30.343 33.5161 32.4684 33.5161 35.0909V36.5553Z" stroke="white" stroke-width="1.51422" stroke-linecap="round" stroke-linejoin="round"/>
<path fill-rule="evenodd" clip-rule="evenodd" d="M35.8385 21.0266C35.2156 20.7162 34.177 20.2227 33.4335 20.2227C31.9036 20.2227 30.876 20.7371 30.0238 21.8513C29.1827 20.7371 27.8272 20.0089 26.2962 20.0089C24.7663 20.0089 23.4119 20.7371 22.5696 21.8513C21.7285 20.7371 20.3729 20.0089 18.843 20.0089C17.3121 20.0089 15.9566 20.7371 15.1154 21.8513C14.2633 20.7371 13.2357 20.2227 11.7058 20.2227C10.6233 20.2227 9.28975 20.9092 8.50342 21.53C9.16911 14.6943 15.0496 9.3479 22.1978 9.3479C29.1717 9.3479 34.9315 14.4377 35.8385 21.0266Z" stroke="white" stroke-width="1.51422" stroke-linecap="round" stroke-linejoin="round"/>
<path d="M22.1919 9.29177V7.78491" stroke="white" stroke-width="1.51422" stroke-linecap="round" stroke-linejoin="round"/>
</svg>
